<svg version="1.1" id="Layer_1" xmlns="http://www.w3.org/2000/svg" xmlns:xlink="http://www.w3.org/1999/xlink" x="0px" y="0px"
	 width="100%" viewBox="0 0 302 304" enable-background="new 0 0 302 304" xml:space="preserve">
<path fill="#FEFEFF" opacity="1.000000" stroke="none" 
	d="
M172.000000,305.000000 
	C114.666679,305.000000 57.833355,305.000000 1.000023,305.000000 
	C1.000015,203.666702 1.000015,102.333389 1.000008,1.000064 
	C101.666618,1.000042 202.333237,1.000042 302.999878,1.000021 
	C302.999939,102.333275 302.999939,203.666550 302.999969,304.999908 
	C259.500000,305.000000 216.000000,305.000000 172.000000,305.000000 
M80.259186,24.722059 
	C67.601128,29.855227 56.257233,37.093903 46.719574,46.843525 
	C11.847590,82.490494 1.080185,125.709251 10.814775,173.419006 
	C26.275574,249.193253 97.513603,297.358765 173.842758,283.909882 
	C276.577972,265.808350 321.890900,152.003418 269.745392,68.324577 
	C245.225113,28.976467 199.580811,6.738413 151.632294,23.227777 
	C150.232895,23.709030 148.369980,23.576820 146.931717,23.100710 
	C124.772736,15.765376 102.789879,15.855827 80.259186,24.722059 
z"/>
<path fill="#0273BC" opacity="1.000000" stroke="none" 
	d="
M80.608231,24.558998 
	C102.789879,15.855827 124.772736,15.765376 146.931717,23.100710 
	C148.369980,23.576820 150.232895,23.709030 151.632294,23.227777 
	C199.580811,6.738413 245.225113,28.976467 269.745392,68.324577 
	C321.890900,152.003418 276.577972,265.808350 173.842758,283.909882 
	C97.513603,297.358765 26.275574,249.193253 10.814775,173.419006 
	C1.080185,125.709251 11.847590,82.490494 46.719574,46.843525 
	C56.257233,37.093903 67.601128,29.855227 80.608231,24.558998 
M90.243172,118.940460 
	C87.640541,93.865913 95.546623,72.198685 112.885788,52.520058 
	C108.935547,52.925919 106.287537,52.934822 103.763840,53.499409 
	C85.549194,57.574287 71.731163,68.379471 61.697773,83.481186 
	C36.629539,121.212502 35.309113,160.814056 58.403587,199.261734 
	C81.697853,238.042023 117.848907,255.510010 162.916809,249.932892 
	C233.555405,241.191422 275.500702,167.688950 247.936417,102.452324 
	C238.869202,80.992874 224.640701,64.070671 202.217178,55.542606 
	C197.475372,53.739212 192.221909,53.281158 187.204193,52.203232 
	C187.053360,52.682743 186.902542,53.162254 186.751724,53.641762 
	C187.392670,54.350269 188.052124,55.042988 188.671844,55.769600 
	C203.385147,73.020836 210.449982,92.886269 208.975647,115.612930 
	C206.702347,150.655609 171.914246,177.067368 137.687561,169.272461 
	C111.278099,163.257874 95.753639,146.260422 90.243172,118.940460 
M144.139130,65.582916 
	C130.786667,78.622604 122.611870,93.879799 124.940422,113.118034 
	C126.548981,126.407799 136.904343,135.365799 149.593185,135.311325 
	C162.405396,135.256348 172.746445,125.906998 174.085510,112.368423 
	C175.988724,93.125977 167.690399,77.967354 154.222473,65.008865 
	C150.780426,61.697021 147.823715,61.487858 144.139130,65.582916 
z"/>
<path fill="#FEFEFF" opacity="1.000000" stroke="none" 
	d="
M90.325012,119.379715 
	C95.753639,146.260422 111.278099,163.257874 137.687561,169.272461 
	C171.914246,177.067368 206.702347,150.655609 208.975647,115.612930 
	C210.449982,92.886269 203.385147,73.020836 188.671844,55.769600 
	C188.052124,55.042988 187.392670,54.350269 186.751724,53.641762 
	C186.902542,53.162254 187.053360,52.682743 187.204193,52.203232 
	C192.221909,53.281158 197.475372,53.739212 202.217178,55.542606 
	C224.640701,64.070671 238.869202,80.992874 247.936417,102.452324 
	C275.500702,167.688950 233.555405,241.191422 162.916809,249.932892 
	C117.848907,255.510010 81.697853,238.042023 58.403587,199.261734 
	C35.309113,160.814056 36.629539,121.212502 61.697773,83.481186 
	C71.731163,68.379471 85.549194,57.574287 103.763840,53.499409 
	C106.287537,52.934822 108.935547,52.925919 112.885788,52.520058 
	C95.546623,72.198685 87.640541,93.865913 90.325012,119.379715 
z"/>
<path fill="#FDFEFE" opacity="1.000000" stroke="none" 
	d="
M144.408569,65.346100 
	C147.823715,61.487858 150.780426,61.697021 154.222473,65.008865 
	C167.690399,77.967354 175.988724,93.125977 174.085510,112.368423 
	C172.746445,125.906998 162.405396,135.256348 149.593185,135.311325 
	C136.904343,135.365799 126.548981,126.407799 124.940422,113.118034 
	C122.611870,93.879799 130.786667,78.622604 144.408569,65.346100 
z"/>
</svg>