<svg version="1.1" id="Layer_1" xmlns="http://www.w3.org/2000/svg" xmlns:xlink="http://www.w3.org/1999/xlink" x="0px" y="0px"
	 width="100%" viewBox="0 0 221 251" enable-background="new 0 0 221 251" xml:space="preserve">
<path fill="#FCFBF8" opacity="1.000000" stroke="none" 
	d="
M124.000000,252.000000 
	C82.666672,252.000000 41.833340,252.000000 1.000005,252.000000 
	C1.000004,168.333344 1.000004,84.666679 1.000002,1.000017 
	C74.666656,1.000011 148.333313,1.000011 221.999969,1.000006 
	C221.999985,84.666649 221.999985,168.333298 222.000000,251.999969 
	C189.500000,252.000000 157.000000,252.000000 124.000000,252.000000 
M122.174225,31.860924 
	C122.174225,31.860924 122.202171,31.777571 121.994957,31.159086 
	C121.052536,30.698172 120.110107,30.237257 119.200157,29.766605 
	C119.200157,29.766605 119.200378,29.732710 118.977776,29.075327 
	C112.946800,25.114063 107.225174,25.058430 103.075874,28.919933 
	C96.281052,33.252125 89.452309,37.532238 82.699608,41.929115 
	C73.331535,48.028927 64.127487,54.387623 54.648632,60.307926 
	C48.013367,64.452179 40.806656,67.702812 34.296974,72.018898 
	C30.343866,74.639915 27.231817,78.529449 23.267807,82.323380 
	C23.203560,83.206566 23.139311,84.089760 22.957767,85.872353 
	C23.016647,88.588730 23.075527,91.305099 23.031986,94.950691 
	C23.064663,114.293343 23.097340,133.635986 22.996187,153.863693 
	C23.031597,156.249054 23.067009,158.634430 23.005960,161.930527 
	C23.644255,166.318115 24.282549,170.705704 24.882780,175.026306 
	C24.882780,175.026306 24.829355,175.081818 24.881536,175.549881 
	C24.881536,175.549881 25.124063,175.953583 25.348066,176.586899 
	C27.540663,178.333801 29.622093,180.248505 31.950203,181.790848 
	C36.133816,184.562469 40.471870,187.100357 44.733990,189.754227 
	C54.358879,195.747269 63.991974,201.727356 73.593231,207.758102 
	C82.886223,213.595215 92.307686,219.248962 101.361900,225.437958 
	C107.988777,229.967743 115.684929,230.153915 122.072395,225.034363 
	C123.192276,224.136810 124.411484,223.352814 125.633194,222.594284 
	C135.114487,216.707596 144.636307,210.885635 154.087631,204.951340 
	C161.001648,200.610168 167.857468,196.174286 174.685150,191.698151 
	C182.105347,186.833588 189.463028,181.873642 197.079605,176.539902 
	C197.079605,176.539902 197.149231,176.069412 197.086548,176.013824 
	C197.086548,176.013824 197.077744,176.097153 197.672150,175.595108 
	C197.892319,167.286087 198.112503,158.977051 198.649673,150.022507 
	C198.575043,149.082703 198.500412,148.142883 198.614807,146.490936 
	C198.549179,146.254272 198.483536,146.017609 198.684113,145.187943 
	C198.570236,144.565048 198.456345,143.942139 198.640976,142.453598 
	C198.538666,133.858368 198.436340,125.263153 198.653320,115.949265 
	C198.550858,114.403053 198.448380,112.856842 198.640274,110.382660 
	C198.538071,108.146973 198.435867,105.911278 198.645355,103.126503 
	C198.542908,102.522774 198.440460,101.919052 198.631805,100.368874 
	C198.530853,97.138023 198.429886,93.907173 198.695297,89.998535 
	C200.924820,80.113464 194.881714,75.836678 188.983170,71.986504 
	C183.948380,68.700134 178.707443,65.728798 173.547363,62.635361 
	C165.953537,58.082916 158.356369,53.535950 150.749695,49.005020 
	C143.447906,44.655708 136.132187,40.329792 128.648224,35.370464 
	C127.093765,34.593140 125.539314,33.815819 124.008324,33.014244 
	C124.008324,33.014244 123.975151,33.011353 123.793694,32.419777 
	C123.232590,32.213345 122.671494,32.006908 122.174225,31.860924 
z"/>
<path fill="#73A3D1" opacity="1.000000" stroke="none" 
	d="
M23.102419,161.019791 
	C23.067009,158.634430 23.031597,156.249054 23.447666,153.323029 
	C24.265575,151.762924 24.947639,150.744690 24.951454,149.723907 
	C25.016525,132.310501 25.033064,114.896515 24.917212,97.483612 
	C24.909508,96.325661 23.755333,95.175346 23.134407,94.021477 
	C23.075527,91.305099 23.016647,88.588730 23.296562,85.284630 
	C23.670883,83.747643 23.706411,82.798386 23.741940,81.849121 
	C27.231817,78.529449 30.343866,74.639915 34.296974,72.018898 
	C40.806656,67.702812 48.013367,64.452179 54.648632,60.307926 
	C64.127487,54.387623 73.331535,48.028927 82.699608,41.929115 
	C89.452309,37.532238 96.281052,33.252125 103.854202,28.939014 
	C109.488487,29.216301 114.344429,29.474506 119.200378,29.732710 
	C119.200378,29.732710 119.200157,29.766605 119.256058,30.112564 
	C120.275360,30.898205 121.238762,31.337887 122.202171,31.777569 
	C122.202171,31.777571 122.174225,31.860924 122.252518,32.116364 
	C122.878922,32.584984 123.427032,32.798168 123.975151,33.011353 
	C123.975151,33.011353 124.008324,33.014244 124.062225,33.363422 
	C125.684944,34.472935 127.253761,35.233265 128.822586,35.993599 
	C136.132187,40.329792 143.447906,44.655708 150.749695,49.005020 
	C158.356369,53.535950 165.953537,58.082916 173.547363,62.635361 
	C178.707443,65.728798 183.948380,68.700134 188.983170,71.986504 
	C194.881714,75.836678 200.924820,80.113464 198.183044,90.643753 
	C197.893204,94.631088 198.115616,97.973206 198.338013,101.315323 
	C198.440460,101.919052 198.542908,102.522774 198.167511,103.690590 
	C197.908417,106.606659 198.127167,108.958649 198.345917,111.310631 
	C198.448380,112.856842 198.550858,114.403053 198.156769,116.625656 
	C197.443726,124.971581 197.175995,132.640427 197.073486,140.311493 
	C197.060165,141.308243 197.898575,142.316376 198.342468,143.319244 
	C198.456345,143.942139 198.570236,144.565048 198.308197,145.618958 
	C198.096802,146.434326 198.261292,146.818710 198.425781,147.203079 
	C198.500412,148.142883 198.575043,149.082703 198.155487,150.662109 
	C197.466766,159.566849 197.272247,167.832001 197.077744,176.097153 
	C197.077744,176.097153 197.086548,176.013824 196.933197,176.077454 
	C196.683655,176.216476 196.493988,176.332993 196.506180,176.360687 
	C196.597733,176.568741 196.729080,176.759262 196.847961,176.955276 
	C189.463028,181.873642 182.105347,186.833588 174.685150,191.698151 
	C167.857468,196.174286 161.001648,200.610168 154.087631,204.951340 
	C144.636307,210.885635 135.114487,216.707596 125.633194,222.594284 
	C124.411484,223.352814 123.192276,224.136810 122.072395,225.034363 
	C115.684929,230.153915 107.988777,229.967743 101.361900,225.437958 
	C92.307686,219.248962 82.886223,213.595215 73.593231,207.758102 
	C63.991974,201.727356 54.358879,195.747269 44.733990,189.754227 
	C40.471870,187.100357 36.133816,184.562469 31.950203,181.790848 
	C29.622093,180.248505 27.540663,178.333801 25.383278,176.158203 
	C25.222111,175.513596 25.025734,175.297714 24.829355,175.081818 
	C24.829355,175.081818 24.882780,175.026306 24.929096,174.637390 
	C24.971872,170.778091 25.101725,167.299118 24.879534,163.842773 
	C24.816854,162.867737 23.723209,161.958954 23.102419,161.019791 
M185.384705,166.534546 
	C185.582703,165.915253 185.952988,165.296204 185.953873,164.676636 
	C185.988724,140.231644 186.009949,115.786545 185.931000,91.341782 
	C185.927414,90.232170 184.979797,89.125603 183.791901,87.920502 
	C180.687836,85.154572 177.767517,82.137115 174.426086,79.696091 
	C171.314972,77.423309 167.687119,75.872780 164.410248,73.808296 
	C160.017807,71.040977 155.842957,67.921028 151.398544,65.245018 
	C142.821655,60.080841 134.139008,55.090981 125.464584,50.090649 
	C121.287132,47.682583 117.131310,45.186005 112.745567,43.220757 
	C111.398682,42.617222 109.068810,43.188416 107.622581,43.997036 
	C100.275635,48.104897 92.980209,52.321571 85.836052,56.771923 
	C71.839722,65.490715 57.955532,74.389519 43.558815,83.196495 
	C43.224354,83.350777 43.093624,83.608459 42.761726,84.562141 
	C38.698887,86.359261 36.250481,89.321716 36.004986,94.844673 
	C36.006233,99.333466 35.853783,103.829407 36.062084,108.308571 
	C36.203911,111.358276 36.850563,114.384506 37.658707,118.130638 
	C37.675869,124.112228 37.693031,130.093811 36.975025,136.291214 
	C36.659279,136.993408 36.076080,137.692902 36.068909,138.398224 
	C35.992233,145.939316 35.960926,153.481873 36.051662,161.022415 
	C36.063580,162.012817 36.828339,162.994171 37.719849,164.451126 
	C38.960644,165.855820 40.201439,167.260529 41.685184,169.277542 
	C47.558674,173.284210 53.432159,177.290863 59.833000,181.799210 
	C67.347595,186.687134 74.812187,191.654251 82.391708,196.439346 
	C89.136467,200.697449 96.233597,204.431473 102.762085,208.988632 
	C109.499260,213.691467 110.427551,214.124710 117.283134,209.967300 
	C132.557037,200.704773 147.806076,191.401215 163.769333,181.993668 
	C166.878464,180.211365 170.183517,178.694916 173.049591,176.582794 
	C177.082184,173.611023 180.789185,170.197372 185.384705,166.534546 
z"/>
<path fill="#649ACC" opacity="1.000000" stroke="none" 
	d="
M23.083197,94.486084 
	C23.755333,95.175346 24.909508,96.325661 24.917212,97.483612 
	C25.033064,114.896515 25.016525,132.310501 24.951454,149.723907 
	C24.947639,150.744690 24.265575,151.762924 23.514580,152.880493 
	C23.097340,133.635986 23.064663,114.293343 23.083197,94.486084 
z"/>
<path fill="#679DCE" opacity="1.000000" stroke="none" 
	d="
M198.491730,142.886414 
	C197.898575,142.316376 197.060165,141.308243 197.073486,140.311493 
	C197.175995,132.640427 197.443726,124.971581 197.997116,116.984985 
	C198.436340,125.263153 198.538666,133.858368 198.491730,142.886414 
z"/>
<path fill="#679DCE" opacity="1.000000" stroke="none" 
	d="
M197.374939,175.846130 
	C197.272247,167.832001 197.466766,159.566849 197.996979,150.984863 
	C198.112503,158.977051 197.892319,167.286087 197.374939,175.846130 
z"/>
<path fill="#6FA0CF" opacity="1.000000" stroke="none" 
	d="
M119.089081,29.404018 
	C114.344429,29.474506 109.488487,29.216301 104.211304,28.942873 
	C107.225174,25.058430 112.946800,25.114063 119.089081,29.404018 
z"/>
<path fill="#6197CA" opacity="1.000000" stroke="none" 
	d="
M23.054190,161.475159 
	C23.723209,161.958954 24.816854,162.867737 24.879534,163.842773 
	C25.101725,167.299118 24.971872,170.778091 24.948128,174.670898 
	C24.282549,170.705704 23.644255,166.318115 23.054190,161.475159 
z"/>
<path fill="#679DCE" opacity="1.000000" stroke="none" 
	d="
M198.484909,100.842102 
	C198.115616,97.973206 197.893204,94.631088 197.999863,90.982651 
	C198.429886,93.907173 198.530853,97.138023 198.484909,100.842102 
z"/>
<path fill="#6FA0CF" opacity="1.000000" stroke="none" 
	d="
M128.735413,35.682030 
	C127.253761,35.233265 125.684944,34.472935 124.050491,33.375549 
	C125.539314,33.815819 127.093765,34.593140 128.735413,35.682030 
z"/>
<path fill="#679DCE" opacity="1.000000" stroke="none" 
	d="
M198.493103,110.846649 
	C198.127167,108.958649 197.908417,106.606659 198.011658,103.965134 
	C198.435867,105.911278 198.538071,108.146973 198.493103,110.846649 
z"/>
<path fill="#6FA0CF" opacity="1.000000" stroke="none" 
	d="
M122.098564,31.468327 
	C121.238762,31.337887 120.275360,30.898205 119.239822,30.117432 
	C120.110107,30.237257 121.052536,30.698172 122.098564,31.468327 
z"/>
<path fill="#649ACC" opacity="1.000000" stroke="none" 
	d="
M23.504873,82.086250 
	C23.706411,82.798386 23.670883,83.747643 23.355209,84.834930 
	C23.139311,84.089760 23.203560,83.206566 23.504873,82.086250 
z"/>
<path fill="#6FA0CF" opacity="1.000000" stroke="none" 
	d="
M123.884422,32.715565 
	C123.427032,32.798168 122.878922,32.584984 122.220596,32.086136 
	C122.671494,32.006908 123.232590,32.213345 123.884422,32.715565 
z"/>
<path fill="#6197CA" opacity="1.000000" stroke="none" 
	d="
M24.855446,175.315857 
	C25.025734,175.297714 25.222111,175.513596 25.271275,175.841537 
	C25.124063,175.953583 24.881536,175.549881 24.855446,175.315857 
z"/>
<path fill="#679DCE" opacity="1.000000" stroke="none" 
	d="
M196.963776,176.747589 
	C196.729080,176.759262 196.597733,176.568741 196.506180,176.360687 
	C196.493988,176.332993 196.683655,176.216476 196.964539,176.105255 
	C197.149231,176.069412 197.079605,176.539902 196.963776,176.747589 
z"/>
<path fill="#679DCE" opacity="1.000000" stroke="none" 
	d="
M198.520294,146.847015 
	C198.261292,146.818710 198.096802,146.434326 198.175110,145.915451 
	C198.483536,146.017609 198.549179,146.254272 198.520294,146.847015 
z"/>
<path fill="#FBFAF9" opacity="1.000000" stroke="none" 
	d="
M36.028023,93.890907 
	C36.250481,89.321716 38.698887,86.359261 43.136406,84.176407 
	C43.724342,83.635780 43.895622,83.443497 44.024929,83.213814 
	C57.955532,74.389519 71.839722,65.490715 85.836052,56.771923 
	C92.980209,52.321571 100.275635,48.104897 107.622581,43.997036 
	C109.068810,43.188416 111.398682,42.617222 112.745567,43.220757 
	C117.131310,45.186005 121.287132,47.682583 125.464584,50.090649 
	C134.139008,55.090981 142.821655,60.080841 151.398544,65.245018 
	C155.842957,67.921028 160.017807,71.040977 164.410248,73.808296 
	C167.687119,75.872780 171.314972,77.423309 174.426086,79.696091 
	C177.767517,82.137115 180.687836,85.154572 184.239777,88.429634 
	C184.658920,109.953987 184.630188,130.969208 184.253052,151.971893 
	C182.651443,149.315704 181.096619,146.767303 180.223587,144.003540 
	C179.198441,140.758270 178.765579,137.325882 177.953629,133.380875 
	C175.793152,134.461029 174.823380,135.290237 173.805145,135.354752 
	C172.853561,135.415054 171.397980,134.925827 170.981110,134.205658 
	C170.419754,133.235855 170.320648,130.816284 170.575470,130.734222 
	C174.174698,129.575272 174.215576,125.369888 176.405167,123.711349 
	C180.722488,120.441116 180.855255,115.376289 181.548294,111.510666 
	C182.567352,105.826637 181.013260,99.537285 179.839905,93.648346 
	C178.844940,88.654678 171.750549,85.523422 166.781250,87.240120 
	C163.639099,88.325615 161.340057,94.687172 162.861908,98.807907 
	C164.007599,101.910126 165.721115,104.801559 166.886627,107.897949 
	C167.552505,109.666985 167.627258,111.658508 167.968170,113.549858 
	C167.418930,113.772713 166.869705,113.995575 166.320465,114.218430 
	C165.043869,112.754700 163.767258,111.290970 162.492188,109.478134 
	C161.868439,107.133232 161.243149,105.137444 160.902191,102.978622 
	C160.161407,98.072289 157.588318,94.647255 152.558868,92.975876 
	C151.166046,92.231743 150.083954,91.561218 148.931915,90.539780 
	C147.135300,89.466835 145.408646,88.744789 143.499939,87.855988 
	C143.176956,87.224060 143.036026,86.758904 142.863251,86.044296 
	C142.624817,85.538918 142.418274,85.282990 141.994354,84.825500 
	C141.508514,84.108795 141.240005,83.593651 140.942017,82.751740 
	C140.279434,81.948463 139.646347,81.471962 138.677948,80.913376 
	C133.523560,74.146317 126.946136,71.910568 118.628761,73.098442 
	C116.952133,74.337517 115.630043,75.658539 114.180222,77.434433 
	C114.033356,92.537766 113.961884,107.186676 114.083458,121.833977 
	C114.094498,123.164307 115.346390,124.484344 116.441422,125.891617 
	C124.665215,126.018723 125.864014,124.893028 127.087799,117.315369 
	C127.839714,112.659470 128.786057,108.015984 129.988068,103.457367 
	C131.076691,99.328804 134.414902,100.999916 136.875992,101.636559 
	C137.264740,101.737122 137.183395,105.101631 136.711258,106.786629 
	C135.683350,110.455078 133.737488,113.925224 133.113449,117.635635 
	C131.832870,125.249908 128.521606,130.543320 120.481453,132.335861 
	C118.277786,132.827164 116.393127,134.749329 114.361038,136.436646 
	C114.367233,138.259232 114.374458,139.660049 114.259193,141.510071 
	C114.107132,150.748871 113.996193,159.539307 114.084061,168.327744 
	C114.124886,172.410934 114.552063,176.490250 114.833824,180.839813 
	C115.242462,181.384659 115.621384,181.661011 116.391571,182.041260 
	C123.614159,185.263397 129.943054,185.246399 135.412033,179.292114 
	C135.926926,178.731537 136.854553,178.379944 137.639603,178.264343 
	C144.461243,177.259811 148.532028,172.305801 152.924683,168.186493 
	C152.651031,170.372955 152.685120,172.285324 151.978073,173.866211 
	C150.479614,177.216675 151.152954,178.581619 154.953445,179.124603 
	C157.742828,179.523102 160.367279,181.075958 163.065231,182.114365 
	C147.806076,191.401215 132.557037,200.704773 117.283134,209.967300 
	C110.427551,214.124710 109.499260,213.691467 102.762085,208.988632 
	C96.233597,204.431473 89.136467,200.697449 82.391708,196.439346 
	C74.812187,191.654251 67.347595,186.687134 60.011078,181.470551 
	C63.426315,182.291565 67.134743,182.799957 69.785355,184.747803 
	C73.368568,187.380997 77.110168,187.052277 80.815750,186.723938 
	C82.965721,186.533417 84.642731,184.911743 82.739189,182.041702 
	C79.968430,177.864105 77.563271,173.444031 75.379997,169.059601 
	C76.969170,169.814392 78.516937,170.389206 79.335640,171.500931 
	C83.640327,177.346298 89.168129,181.421722 96.429657,183.851929 
	C99.607529,183.346298 102.377625,182.730026 105.099579,182.072662 
	C105.051437,182.031555 105.101837,182.147690 105.485886,182.013016 
	C106.235359,180.322540 106.916328,178.767426 106.919724,177.210846 
	C106.990356,144.784332 107.017761,112.357529 106.907677,79.931282 
	C106.901253,78.036995 105.660248,76.146904 104.625778,74.030273 
	C91.894005,71.736115 85.471527,72.752937 76.728958,84.076157 
	C76.294647,84.344086 76.120575,84.568275 75.779312,85.100647 
	C71.789085,90.142311 70.131462,96.479805 64.383606,99.837524 
	C62.221188,101.100746 60.559669,103.221420 58.532310,105.040283 
	C58.215302,105.268265 58.094513,105.446877 57.799194,105.818024 
	C57.192028,106.376900 56.818123,106.782951 56.118862,106.988136 
	C56.428204,104.461044 56.662426,101.915848 57.787693,99.857857 
	C59.664341,96.425667 62.314075,93.417564 64.209801,89.993652 
	C64.886314,88.771767 64.318207,86.860779 64.318207,85.355927 
	C61.094608,86.351593 58.854294,87.900505 57.336254,87.372574 
	C47.879265,84.083694 46.366974,86.403114 40.826073,93.268669 
	C39.909573,94.404274 38.442631,95.095634 37.152763,95.677246 
	C36.726318,94.871765 36.377171,94.381332 36.028023,93.890907 
M149.393921,83.837898 
	C149.652512,83.199158 149.911087,82.560417 150.169662,81.921669 
	C149.626602,81.830078 149.083542,81.738487 148.540497,81.646904 
	C148.621002,82.321365 148.701523,82.995834 149.393921,83.837898 
M159.888168,86.717400 
	C160.425369,86.527069 160.962555,86.336731 161.499756,86.146400 
	C161.374115,85.870422 161.248474,85.594444 161.122833,85.318459 
	C160.569870,85.640968 160.016891,85.963478 159.888168,86.717400 
M73.801804,79.401382 
	C73.797516,79.789093 73.793228,80.176796 73.788933,80.564499 
	C73.949814,80.566093 74.250519,80.578537 74.251358,80.567734 
	C74.281273,80.181946 74.283134,79.793983 73.801804,79.401382 
z"/>
<path fill="#FBFAF9" opacity="1.000000" stroke="none" 
	d="
M37.710190,136.075409 
	C37.693031,130.093811 37.675869,124.112228 37.647896,117.348404 
	C37.596725,111.052200 37.556366,105.538246 37.865601,100.039398 
	C39.144730,102.452255 39.852085,104.969604 41.061684,107.216576 
	C42.479588,109.850494 44.334454,112.249168 45.999783,114.749886 
	C47.536556,113.502342 48.970192,112.087265 50.641563,111.058372 
	C52.070820,110.178528 53.772747,109.741608 55.261230,109.499619 
	C54.672043,112.257996 54.175694,114.625549 53.323792,117.009659 
	C50.085918,118.801437 49.831520,120.480766 53.324398,122.406128 
	C54.925522,125.860344 56.377052,128.927353 57.766117,132.022385 
	C58.189339,132.965408 58.889877,134.089020 58.691223,134.952225 
	C57.911701,138.339447 56.823864,141.655716 55.420124,144.999207 
	C49.160488,145.665497 43.331272,146.330917 37.419296,146.600830 
	C37.461086,142.828690 37.585640,139.452042 37.710190,136.075409 
z"/>
<path fill="#F8F8F6" opacity="1.000000" stroke="none" 
	d="
M75.002220,169.127335 
	C77.563271,173.444031 79.968430,177.864105 82.739189,182.041702 
	C84.642731,184.911743 82.965721,186.533417 80.815750,186.723938 
	C77.110168,187.052277 73.368568,187.380997 69.785355,184.747803 
	C67.134743,182.799957 63.426315,182.291565 59.747398,181.219711 
	C53.432159,177.290863 47.558674,173.284210 41.710617,168.806656 
	C41.736050,168.335770 42.000305,168.000000 42.404186,168.000031 
	C49.580963,168.095016 54.272495,175.354111 61.626724,173.479858 
	C61.725529,173.454681 61.876007,173.683060 62.017609,173.767532 
	C65.220886,175.678558 68.426292,177.586029 71.631302,179.494141 
	C72.161690,178.947525 72.692078,178.400909 73.222466,177.854294 
	C72.202408,176.584686 71.403061,174.541946 70.124733,174.177017 
	C64.032463,172.437790 60.206203,166.773621 61.326103,160.163971 
	C65.546135,164.079941 68.889275,168.714920 75.002220,169.127335 
z"/>
<path fill="#F8F8F6" opacity="1.000000" stroke="none" 
	d="
M37.502052,146.996323 
	C43.331272,146.330917 49.160488,145.665497 55.495422,145.209106 
	C56.001133,145.418106 56.048939,145.861496 56.096771,146.071854 
	C56.247478,146.561661 56.421326,146.786163 56.684582,147.349960 
	C57.169144,149.484894 57.635277,151.225571 57.774738,153.017578 
	C57.632393,154.713593 57.816719,156.358292 57.951859,158.327942 
	C56.275620,158.117599 54.643970,157.595779 53.022949,157.042831 
	C51.687122,156.587128 49.438641,155.385529 49.176937,155.727036 
	C46.286137,159.499405 41.450748,162.228256 42.000305,168.000000 
	C42.000305,168.000000 41.736050,168.335770 41.589142,168.500504 
	C40.201439,167.260529 38.960644,165.855820 37.429031,163.817841 
	C37.154564,162.122009 37.170918,161.059433 37.572960,159.986923 
	C41.672329,159.635452 41.287495,156.731583 40.805447,154.523315 
	C40.576439,153.474213 38.488651,152.830856 37.188339,151.586517 
	C37.256527,149.778336 37.379292,148.387329 37.502052,146.996323 
z"/>
<path fill="#F9F8F6" opacity="1.000000" stroke="none" 
	d="
M163.417282,182.054016 
	C160.367279,181.075958 157.742828,179.523102 154.953445,179.124603 
	C151.152954,178.581619 150.479614,177.216675 151.978073,173.866211 
	C152.685120,172.285324 152.651031,170.372955 152.908386,167.834900 
	C153.700226,165.722656 154.536469,164.386307 155.516754,163.298126 
	C155.775513,163.699371 155.890213,163.852417 156.008423,164.375977 
	C157.716202,166.558975 159.242828,168.590164 161.156799,170.144348 
	C167.838547,175.569962 178.724930,172.337616 181.200470,164.376617 
	C181.383469,163.788101 182.378708,163.452148 183.024414,163.284637 
	C183.561768,164.043335 184.071060,164.516174 184.663849,165.313797 
	C184.710052,166.083282 184.672729,166.527985 184.635406,166.972687 
	C180.789185,170.197372 177.082184,173.611023 173.049591,176.582794 
	C170.183517,178.694916 166.878464,180.211365 163.417282,182.054016 
z"/>
<path fill="#4F8DC7" opacity="1.000000" stroke="none" 
	d="
M185.010056,166.753616 
	C184.672729,166.527985 184.710052,166.083282 184.758728,164.921600 
	C184.713348,163.136353 184.656601,162.068115 184.696472,160.558838 
	C184.729202,157.406693 184.665329,154.695557 184.601456,151.984421 
	C184.630188,130.969208 184.658920,109.953987 184.579758,88.478195 
	C184.979797,89.125603 185.927414,90.232170 185.931000,91.341782 
	C186.009949,115.786545 185.988724,140.231644 185.953873,164.676636 
	C185.952988,165.296204 185.582703,165.915253 185.010056,166.753616 
z"/>
<path fill="#528FC7" opacity="1.000000" stroke="none" 
	d="
M37.187271,159.996872 
	C37.170918,161.059433 37.154564,162.122009 37.191315,163.582138 
	C36.828339,162.994171 36.063580,162.012817 36.051662,161.022415 
	C35.960926,153.481873 35.992233,145.939316 36.068909,138.398224 
	C36.076080,137.692902 36.659279,136.993408 37.342606,136.183319 
	C37.585640,139.452042 37.461086,142.828690 37.419296,146.600830 
	C37.379292,148.387329 37.256527,149.778336 37.105507,152.024048 
	C37.113926,155.251465 37.150600,157.624176 37.187271,159.996872 
z"/>
<path fill="#5C95CB" opacity="1.000000" stroke="none" 
	d="
M37.516006,100.024284 
	C37.556366,105.538246 37.596725,111.052200 37.454281,116.993698 
	C36.850563,114.384506 36.203911,111.358276 36.062084,108.308571 
	C35.853783,103.829407 36.006233,99.333466 36.016502,94.367790 
	C36.377171,94.381332 36.726318,94.871765 37.098740,96.082489 
	C37.253345,97.876617 37.384674,98.950447 37.516006,100.024284 
z"/>
<path fill="#F8F8F6" opacity="1.000000" stroke="none" 
	d="
M43.791870,83.205154 
	C43.895622,83.443497 43.724342,83.635780 43.338856,83.880112 
	C43.093624,83.608459 43.224354,83.350777 43.791870,83.205154 
z"/>
<path fill="#1C304B" opacity="1.000000" stroke="none" 
	d="
M155.372696,163.049942 
	C154.536469,164.386307 153.700226,165.722656 152.880295,167.410599 
	C148.532028,172.305801 144.461243,177.259811 137.639603,178.264343 
	C136.854553,178.379944 135.926926,178.731537 135.412033,179.292114 
	C129.943054,185.246399 123.614159,185.263397 116.400505,181.576706 
	C116.016266,167.559418 116.067841,154.110092 115.939865,140.662460 
	C115.925072,139.108398 114.912201,137.563858 114.362076,136.014893 
	C116.393127,134.749329 118.277786,132.827164 120.481453,132.335861 
	C128.521606,130.543320 131.832870,125.249908 133.113449,117.635635 
	C133.737488,113.925224 135.683350,110.455078 136.711258,106.786629 
	C137.183395,105.101631 137.264740,101.737122 136.875992,101.636559 
	C134.414902,100.999916 131.076691,99.328804 129.988068,103.457367 
	C128.786057,108.015984 127.839714,112.659470 127.087799,117.315369 
	C125.864014,124.893028 124.665215,126.018723 116.436401,125.699844 
	C116.011993,125.425621 115.991402,125.042480 115.997406,124.571198 
	C116.001907,110.559052 116.119644,97.016472 115.923706,83.478432 
	C115.867462,79.592194 116.183708,76.089622 118.983292,73.180389 
	C126.946136,71.910568 133.523560,74.146317 138.801254,81.206154 
	C139.830414,82.080185 140.400970,82.579346 140.971512,83.078506 
	C141.240005,83.593651 141.508514,84.108795 142.011093,85.081535 
	C142.461823,85.790665 142.678467,86.042206 142.895111,86.293739 
	C143.036026,86.758904 143.176956,87.224060 143.575134,88.209618 
	C145.555557,89.450241 147.278717,90.170464 149.001862,90.890694 
	C150.083954,91.561218 151.166046,92.231743 152.620789,93.323219 
	C155.534897,96.876671 158.076370,100.009163 160.617844,103.141647 
	C161.243149,105.137444 161.868439,107.133232 162.270050,109.797562 
	C161.033127,115.276085 161.348267,119.728783 165.552658,123.482315 
	C165.799561,124.445580 165.954590,125.086578 166.079010,126.211563 
	C166.069717,131.916473 166.091019,137.137390 166.118408,142.716003 
	C165.132339,145.134018 164.393906,147.372467 163.097275,149.218964 
	C160.037872,153.575775 155.953445,157.318039 155.372696,163.049942 
M131.061768,160.953934 
	C132.440140,155.236710 133.564163,149.367813 141.212662,148.755753 
	C141.925095,148.698746 143.104233,147.037491 143.016251,146.236450 
	C142.897659,145.156799 141.976913,143.658981 141.020355,143.266205 
	C137.098312,141.655731 130.654587,144.167725 129.127136,147.937103 
	C126.186150,155.194733 123.828804,162.573669 127.553848,170.315796 
	C131.231628,168.927444 131.231628,168.927444 131.061768,160.953934 
M148.200623,132.211868 
	C149.110779,133.734833 150.020935,135.257797 151.109955,137.080032 
	C154.962189,131.514343 151.354172,125.182098 145.116989,123.264908 
	C142.795288,127.038940 144.264359,129.656860 148.200623,132.211868 
z"/>
<path fill="#1B2F4A" opacity="1.000000" stroke="none" 
	d="
M58.101410,152.966248 
	C57.635277,151.225571 57.169144,149.484894 56.807617,147.107147 
	C56.624458,146.267212 56.336700,146.064362 56.048939,145.861496 
	C56.048939,145.861496 56.001133,145.418106 55.925835,145.208221 
	C56.823864,141.655716 57.911701,138.339447 58.691223,134.952225 
	C58.889877,134.089020 58.189339,132.965408 57.766117,132.022385 
	C56.377052,128.927353 54.925522,125.860344 53.565750,122.035721 
	C53.648788,119.856956 53.664070,118.425026 53.679344,116.993103 
	C54.175694,114.625549 54.672043,112.257996 55.488403,109.328751 
	C56.020348,108.241043 56.232285,107.715027 56.444221,107.189011 
	C56.818123,106.782951 57.192028,106.376900 58.032646,105.875748 
	C58.853714,105.565346 58.910526,105.288864 58.669800,104.951202 
	C60.559669,103.221420 62.221188,101.100746 64.383606,99.837524 
	C70.131462,96.479805 71.789085,90.142311 76.038162,85.107811 
	C76.661720,84.566147 76.791672,84.273041 76.921623,83.979935 
	C85.471527,72.752937 91.894005,71.736115 104.630936,74.482346 
	C105.036674,110.821907 105.069252,146.484802 105.101837,182.147690 
	C105.101837,182.147690 105.051437,182.031555 104.676857,182.040710 
	C101.542145,182.613678 98.782021,183.177490 96.021889,183.741287 
	C89.168129,181.421722 83.640327,177.346298 79.335640,171.500931 
	C78.516937,170.389206 76.969170,169.814392 75.379997,169.059601 
	C68.889275,168.714920 65.546135,164.079941 61.286251,159.872772 
	C60.421261,158.892288 59.882919,158.383591 59.306297,157.492035 
	C58.879147,155.728195 58.490276,154.347229 58.101410,152.966248 
M90.879890,122.167892 
	C90.879890,122.167892 90.865417,122.301987 90.587372,121.592606 
	C85.738976,121.056717 80.890587,120.520836 75.382584,119.751366 
	C74.871933,116.824219 74.361282,113.897079 73.572136,109.373543 
	C71.183319,112.037239 68.525887,113.618156 68.357155,115.430740 
	C67.669998,122.812546 67.681824,128.442047 78.947762,128.030731 
	C80.443680,127.976120 81.944153,128.030289 83.442223,128.053146 
	C87.183456,128.110214 90.078545,129.694183 91.198273,133.326065 
	C92.247597,136.729553 94.208183,136.559555 96.700630,135.749298 
	C97.394707,130.763657 96.785149,126.503273 92.639320,122.654358 
	C92.010475,122.507240 91.381638,122.360123 90.879890,122.167892 
M84.094704,94.145226 
	C84.094208,96.783012 83.485741,99.625114 84.282173,101.995094 
	C84.940224,103.953270 87.258873,105.353409 88.841705,107.000824 
	C89.324974,105.036926 89.844872,103.080780 90.263481,101.103203 
	C90.357719,100.658028 90.116158,100.133751 89.999321,99.653160 
	C88.864655,94.986000 90.747887,92.332253 95.262749,90.857582 
	C97.175728,90.232758 98.727684,88.502640 100.547447,87.200668 
	C95.630150,82.613045 87.696060,85.974693 84.094704,94.145226 
M68.858330,145.493378 
	C70.993744,150.742111 75.820351,153.245911 80.248703,155.827805 
	C81.865578,156.770508 84.837723,155.746445 87.046242,155.112961 
	C87.770561,154.905212 88.604439,152.944000 88.364494,152.063705 
	C88.080299,151.021072 86.642204,149.483948 85.785835,149.534821 
	C79.180725,149.927124 76.374229,144.302979 71.970207,141.234909 
	C70.812263,140.428223 69.436012,139.934891 68.160011,139.297668 
	C68.271561,141.136826 68.383118,142.975967 68.858330,145.493378 
z"/>
<path fill="#F9F8F6" opacity="1.000000" stroke="none" 
	d="
M165.460785,123.160057 
	C161.348267,119.728783 161.033127,115.276085 162.268524,110.146667 
	C163.767258,111.290970 165.043869,112.754700 166.320465,114.218430 
	C166.869705,113.995575 167.418930,113.772713 167.968170,113.549858 
	C167.627258,111.658508 167.552505,109.666985 166.886627,107.897949 
	C165.721115,104.801559 164.007599,101.910126 162.861908,98.807907 
	C161.340057,94.687172 163.639099,88.325615 166.781250,87.240120 
	C171.750549,85.523422 178.844940,88.654678 179.839905,93.648346 
	C181.013260,99.537285 182.567352,105.826637 181.548294,111.510666 
	C180.855255,115.376289 180.722488,120.441116 176.405167,123.711349 
	C174.215576,125.369888 174.174698,129.575272 170.575470,130.734222 
	C170.320648,130.816284 170.419754,133.235855 170.981110,134.205658 
	C171.397980,134.925827 172.853561,135.415054 173.805145,135.354752 
	C174.823380,135.290237 175.793152,134.461029 177.953629,133.380875 
	C178.765579,137.325882 179.198441,140.758270 180.223587,144.003540 
	C181.096619,146.767303 182.651443,149.315704 184.253052,151.971893 
	C184.665329,154.695557 184.729202,157.406693 184.429977,160.560577 
	C183.711044,161.001419 183.355209,160.999481 182.946991,160.657349 
	C179.719620,157.895233 176.544647,155.473343 173.506271,153.155640 
	C168.237473,156.712189 163.392899,159.982361 158.548340,163.252533 
	C158.806320,163.719620 159.064301,164.186707 159.322281,164.653793 
	C158.216492,164.437683 157.110687,164.221573 156.004898,164.005463 
	C155.890213,163.852417 155.775513,163.699371 155.516754,163.298126 
	C155.953445,157.318039 160.037872,153.575775 163.097275,149.218964 
	C164.393906,147.372467 165.132339,145.134018 166.428162,142.456406 
	C166.805573,136.564850 166.879318,131.290619 167.313721,125.948761 
	C168.023560,125.293243 168.372742,124.705338 168.721909,124.117424 
	C167.634872,123.798302 166.547821,123.479179 165.460785,123.160057 
z"/>
<path fill="#F8F8F6" opacity="1.000000" stroke="none" 
	d="
M56.118866,106.988136 
	C56.232285,107.715027 56.020348,108.241043 55.581238,108.937920 
	C53.772747,109.741608 52.070820,110.178528 50.641563,111.058372 
	C48.970192,112.087265 47.536556,113.502342 45.999783,114.749886 
	C44.334454,112.249168 42.479588,109.850494 41.061684,107.216576 
	C39.852085,104.969604 39.144730,102.452255 37.865601,100.039398 
	C37.384674,98.950447 37.253345,97.876617 37.176041,96.397537 
	C38.442631,95.095634 39.909573,94.404274 40.826073,93.268669 
	C46.366974,86.403114 47.879265,84.083694 57.336254,87.372574 
	C58.854294,87.900505 61.094608,86.351593 64.318207,85.355927 
	C64.318207,86.860779 64.886314,88.771767 64.209801,89.993652 
	C62.314075,93.417564 59.664341,96.425667 57.787693,99.857857 
	C56.662426,101.915848 56.428204,104.461044 56.118866,106.988136 
z"/>
<path fill="#2B3345" opacity="1.000000" stroke="none" 
	d="
M105.485878,182.013016 
	C105.069252,146.484802 105.036674,110.821907 104.998932,74.706940 
	C105.660248,76.146904 106.901253,78.036995 106.907677,79.931282 
	C107.017761,112.357529 106.990356,144.784332 106.919724,177.210846 
	C106.916328,178.767426 106.235359,180.322540 105.485878,182.013016 
z"/>
<path fill="#142138" opacity="1.000000" stroke="none" 
	d="
M118.628761,73.098442 
	C116.183708,76.089622 115.867462,79.592194 115.923706,83.478432 
	C116.119644,97.016472 116.001907,110.559052 115.688049,124.282196 
	C115.245415,110.733879 115.144455,97.002922 114.962990,83.273041 
	C114.935234,81.172699 114.535591,79.077271 114.307953,76.979568 
	C115.630043,75.658539 116.952133,74.337517 118.628761,73.098442 
z"/>
<path fill="#111F38" opacity="1.000000" stroke="none" 
	d="
M114.361038,136.436646 
	C114.912201,137.563858 115.925072,139.108398 115.939865,140.662460 
	C116.067841,154.110092 116.016266,167.559418 116.009232,181.472809 
	C115.621384,181.661011 115.242462,181.384659 114.896667,180.332626 
	C114.961311,173.116898 115.088638,166.675476 114.997307,160.237167 
	C114.906601,153.843445 114.595901,147.452835 114.381676,141.060867 
	C114.374458,139.660049 114.367233,138.259232 114.361038,136.436646 
z"/>
<path fill="#464750" opacity="1.000000" stroke="none" 
	d="
M114.180229,77.434433 
	C114.535591,79.077271 114.935234,81.172699 114.962990,83.273041 
	C115.144455,97.002922 115.245415,110.733879 115.682045,124.753479 
	C115.991402,125.042480 116.011993,125.425621 116.017021,125.617386 
	C115.346390,124.484344 114.094498,123.164307 114.083458,121.833977 
	C113.961884,107.186676 114.033356,92.537766 114.180229,77.434433 
z"/>
<path fill="#1C304B" opacity="1.000000" stroke="none" 
	d="
M114.259193,141.510071 
	C114.595901,147.452835 114.906601,153.843445 114.997307,160.237167 
	C115.088638,166.675476 114.961311,173.116898 114.866951,180.064133 
	C114.552063,176.490250 114.124886,172.410934 114.084061,168.327744 
	C113.996193,159.539307 114.107132,150.748871 114.259193,141.510071 
z"/>
<path fill="#F9F8F6" opacity="1.000000" stroke="none" 
	d="
M160.902191,102.978615 
	C158.076370,100.009163 155.534897,96.876671 152.931519,93.396835 
	C157.588318,94.647255 160.161407,98.072289 160.902191,102.978615 
z"/>
<path fill="#2B3345" opacity="1.000000" stroke="none" 
	d="
M96.429657,183.851929 
	C98.782021,183.177490 101.542145,182.613678 104.724998,182.081818 
	C102.377625,182.730026 99.607529,183.346298 96.429657,183.851929 
z"/>
<path fill="#F9F8F6" opacity="1.000000" stroke="none" 
	d="
M148.931915,90.539780 
	C147.278717,90.170464 145.555557,89.450241 143.757202,88.376373 
	C145.408646,88.744789 147.135300,89.466835 148.931915,90.539780 
z"/>
<path fill="#F9F8F6" opacity="1.000000" stroke="none" 
	d="
M149.087982,83.754105 
	C148.701523,82.995834 148.621002,82.321365 148.540497,81.646904 
	C149.083542,81.738487 149.626602,81.830078 150.169662,81.921669 
	C149.911087,82.560417 149.652512,83.199158 149.087982,83.754105 
z"/>
<path fill="#F9F8F6" opacity="1.000000" stroke="none" 
	d="
M159.676056,86.501694 
	C160.016891,85.963478 160.569870,85.640968 161.122833,85.318466 
	C161.248474,85.594444 161.374115,85.870422 161.499756,86.146393 
	C160.962555,86.336731 160.425369,86.527069 159.676056,86.501694 
z"/>
<path fill="#F9F8F6" opacity="1.000000" stroke="none" 
	d="
M140.942017,82.751740 
	C140.400970,82.579346 139.830414,82.080185 139.136566,81.288239 
	C139.646347,81.471962 140.279434,81.948463 140.942017,82.751740 
z"/>
<path fill="#F8F8F6" opacity="1.000000" stroke="none" 
	d="
M74.045357,79.403854 
	C74.283134,79.793983 74.281273,80.181946 74.251358,80.567734 
	C74.250519,80.578537 73.949814,80.566093 73.788940,80.564499 
	C73.793228,80.176796 73.797516,79.789093 74.045357,79.403854 
z"/>
<path fill="#F8F8F6" opacity="1.000000" stroke="none" 
	d="
M76.728958,84.076157 
	C76.791672,84.273041 76.661720,84.566147 76.272919,84.852097 
	C76.120575,84.568275 76.294647,84.344086 76.728958,84.076157 
z"/>
<path fill="#F9F8F6" opacity="1.000000" stroke="none" 
	d="
M142.863251,86.044296 
	C142.678467,86.042206 142.461823,85.790665 142.228455,85.283096 
	C142.418274,85.282990 142.624817,85.538918 142.863251,86.044296 
z"/>
<path fill="#F8F8F6" opacity="1.000000" stroke="none" 
	d="
M58.532310,105.040283 
	C58.910526,105.288864 58.853714,105.565346 58.265907,105.722931 
	C58.094513,105.446877 58.215302,105.268265 58.532310,105.040283 
z"/>
<path fill="#F8F8F6" opacity="1.000000" stroke="none" 
	d="
M53.323792,117.009659 
	C53.664070,118.425026 53.648788,119.856956 53.392155,121.659286 
	C49.831520,120.480766 50.085918,118.801437 53.323792,117.009659 
z"/>
<path fill="#F7F6F4" opacity="1.000000" stroke="none" 
	d="
M59.344578,157.874878 
	C59.882919,158.383591 60.421261,158.892288 60.999454,159.692184 
	C60.206203,166.773621 64.032463,172.437790 70.124733,174.177017 
	C71.403061,174.541946 72.202408,176.584686 73.222466,177.854294 
	C72.692078,178.400909 72.161690,178.947525 71.631302,179.494141 
	C68.426292,177.586029 65.220886,175.678558 62.017609,173.767532 
	C61.876007,173.683060 61.725529,173.454681 61.626724,173.479858 
	C54.272495,175.354111 49.580963,168.095016 42.404186,168.000031 
	C41.450748,162.228256 46.286137,159.499405 49.176937,155.727036 
	C49.438641,155.385529 51.687122,156.587128 53.022949,157.042831 
	C54.643970,157.595779 56.275620,158.117599 58.288033,158.299011 
	C58.897118,157.921707 59.120850,157.898300 59.344578,157.874878 
z"/>
<path fill="#FBFAF9" opacity="1.000000" stroke="none" 
	d="
M37.572960,159.986923 
	C37.150600,157.624176 37.113926,155.251465 37.160084,152.441223 
	C38.488651,152.830856 40.576439,153.474213 40.805447,154.523315 
	C41.287495,156.731583 41.672329,159.635452 37.572960,159.986923 
z"/>
<path fill="#FBFAF9" opacity="1.000000" stroke="none" 
	d="
M59.306297,157.492035 
	C59.120850,157.898300 58.897118,157.921707 58.337215,157.974060 
	C57.816719,156.358292 57.632393,154.713593 57.774738,153.017578 
	C58.490276,154.347229 58.879147,155.728195 59.306297,157.492035 
z"/>
<path fill="#FBFAF9" opacity="1.000000" stroke="none" 
	d="
M56.096771,146.071854 
	C56.336700,146.064362 56.624458,146.267212 56.789185,146.712891 
	C56.421326,146.786163 56.247478,146.561661 56.096771,146.071854 
z"/>
<path fill="#F7F6F4" opacity="1.000000" stroke="none" 
	d="
M156.008423,164.375977 
	C157.110687,164.221573 158.216492,164.437683 159.322281,164.653793 
	C159.064301,164.186707 158.806320,163.719620 158.548340,163.252533 
	C163.392899,159.982361 168.237473,156.712189 173.506271,153.155640 
	C176.544647,155.473343 179.719620,157.895233 182.946686,160.990921 
	C182.997971,162.109406 182.997147,162.554092 182.996338,162.998779 
	C182.378708,163.452148 181.383469,163.788101 181.200470,164.376617 
	C178.724930,172.337616 167.838547,175.569962 161.156799,170.144348 
	C159.242828,168.590164 157.716202,166.558975 156.008423,164.375977 
z"/>
<path fill="#FBFAF9" opacity="1.000000" stroke="none" 
	d="
M183.024414,163.284637 
	C182.997147,162.554092 182.997971,162.109406 182.999084,161.331146 
	C183.355209,160.999481 183.711044,161.001419 184.333374,161.001602 
	C184.656601,162.068115 184.713348,163.136353 184.675201,164.596802 
	C184.071060,164.516174 183.561768,164.043335 183.024414,163.284637 
z"/>
<path fill="#F3F3F3" opacity="1.000000" stroke="none" 
	d="
M131.041779,161.383957 
	C131.231628,168.927444 131.231628,168.927444 127.553848,170.315796 
	C123.828804,162.573669 126.186150,155.194733 129.127136,147.937103 
	C130.654587,144.167725 137.098312,141.655731 141.020355,143.266205 
	C141.976913,143.658981 142.897659,145.156799 143.016251,146.236450 
	C143.104233,147.037491 141.925095,148.698746 141.212662,148.755753 
	C133.564163,149.367813 132.440140,155.236710 131.041779,161.383957 
z"/>
<path fill="#DADCDF" opacity="1.000000" stroke="none" 
	d="
M147.919006,131.976990 
	C144.264359,129.656860 142.795288,127.038940 145.116989,123.264908 
	C151.354172,125.182098 154.962189,131.514343 151.109955,137.080032 
	C150.020935,135.257797 149.110779,133.734833 147.919006,131.976990 
z"/>
<path fill="#1A253D" opacity="1.000000" stroke="none" 
	d="
M166.953064,126.016373 
	C166.879318,131.290619 166.805573,136.564850 166.422073,142.098694 
	C166.091019,137.137390 166.069717,131.916473 166.291870,126.277954 
	C166.535309,125.860367 166.953064,126.016373 166.953064,126.016373 
z"/>
<path fill="#FBFAF9" opacity="1.000000" stroke="none" 
	d="
M167.313721,125.948761 
	C166.953064,126.016373 166.535309,125.860367 166.322449,125.793968 
	C165.954590,125.086578 165.799561,124.445580 165.552658,123.482315 
	C166.547821,123.479179 167.634872,123.798302 168.721909,124.117424 
	C168.372742,124.705338 168.023560,125.293243 167.313721,125.948761 
z"/>
<path fill="#F3F3F3" opacity="1.000000" stroke="none" 
	d="
M92.913826,123.272141 
	C96.785149,126.503273 97.394707,130.763657 96.700630,135.749298 
	C94.208183,136.559555 92.247597,136.729553 91.198273,133.326065 
	C90.078545,129.694183 87.183456,128.110214 83.442223,128.053146 
	C81.944153,128.030289 80.443680,127.976120 78.947762,128.030731 
	C67.681824,128.442047 67.669998,122.812546 68.357155,115.430740 
	C68.525887,113.618156 71.183319,112.037239 73.572136,109.373543 
	C74.361282,113.897079 74.871933,116.824219 75.889969,120.218002 
	C81.220047,121.223747 86.042732,121.762863 90.865417,122.301987 
	C90.865417,122.301987 90.879890,122.167892 91.002220,122.443565 
	C91.720978,122.903542 92.317398,123.087845 92.913826,123.272141 
z"/>
<path fill="#EDEDEE" opacity="1.000000" stroke="none" 
	d="
M84.159950,93.733963 
	C87.696060,85.974693 95.630150,82.613045 100.547447,87.200668 
	C98.727684,88.502640 97.175728,90.232758 95.262749,90.857582 
	C90.747887,92.332253 88.864655,94.986000 89.999321,99.653160 
	C90.116158,100.133751 90.357719,100.658028 90.263481,101.103203 
	C89.844872,103.080780 89.324974,105.036926 88.841705,107.000824 
	C87.258873,105.353409 84.940224,103.953270 84.282173,101.995094 
	C83.485741,99.625114 84.094208,96.783012 84.159950,93.733963 
z"/>
<path fill="#E8E9EA" opacity="1.000000" stroke="none" 
	d="
M68.676498,145.154251 
	C68.383118,142.975967 68.271561,141.136826 68.160011,139.297668 
	C69.436012,139.934891 70.812263,140.428223 71.970207,141.234909 
	C76.374229,144.302979 79.180725,149.927124 85.785835,149.534821 
	C86.642204,149.483948 88.080299,151.021072 88.364494,152.063705 
	C88.604439,152.944000 87.770561,154.905212 87.046242,155.112961 
	C84.837723,155.746445 81.865578,156.770508 80.248703,155.827805 
	C75.820351,153.245911 70.993744,150.742111 68.676498,145.154251 
z"/>
<path fill="#1A253D" opacity="1.000000" stroke="none" 
	d="
M90.726395,121.947296 
	C86.042732,121.762863 81.220047,121.223747 76.219772,120.334793 
	C80.890587,120.520836 85.738976,121.056717 90.726395,121.947296 
z"/>
<path fill="#1A253D" opacity="1.000000" stroke="none" 
	d="
M92.776573,122.963249 
	C92.317398,123.087845 91.720978,122.903542 90.938675,122.466118 
	C91.381638,122.360123 92.010475,122.507240 92.776573,122.963249 
z"/>
</svg>